<svg width="123" height="142" viewBox="0 0 123 142" xmlns="http://www.w3.org/2000/svg">
    <title>
        filecoin-block
    </title>
    <g fill="none" fill-rule="evenodd">
        <path fill="#FBFCFF" fill-rule="nonzero" d="M.862 36.722v69.681l60.818 35.045V72.677z"/>
        <path d="M26.45 68.115l25.692 15.06M26.45 75.56l25.692 15.06M26.45 83.005l25.692 15.06M26.45 90.45l25.692 15.061M26.45 97.896l25.692 15.06m-25.692-7.615l25.692 15.06M11.56 59.925l6.423 3.765m-6.423 3.68l6.423 3.765m-6.423 3.681l6.423 3.765M11.56 82.26l6.423 3.766m-6.423 3.68l6.423 3.765m-6.423 3.68l6.423 3.765" stroke="#748CF9" stroke-width="1.8"/>
        <path fill="#F1F5FF" fill-rule="nonzero" d="M61.68 72.677l60.818-35.938v69.664L61.68 141.448z"/>
        <path d="M112.744 59.055L87.045 74.104m25.699-8.349l-25.699 15.05m25.699-7.605L87.045 88.25m25.699-7.604L87.045 95.695m25.699-7.604l-25.699 15.05m25.699-7.605l-25.699 15.05M79.24 79.157l-6.424 3.762m6.424 2.938l-6.424 3.763m6.424 3.683l-6.424 3.762m6.424 3.683l-6.424 3.762m6.424 3.683l-6.424 3.762m6.424 3.683l-6.424 3.763" stroke="#12C4AA" stroke-width="1.8"/>
        <path fill="#FFF" fill-rule="nonzero" d="M.865 36.722l60.769 36.091 60.769-36.091L61.68 1.402z"/>
        <path d="M62.893 38.29l.14-.08c.227-.128.17-.3-.171-.513l-6.585-4.133c-.307-.193-.293-.37.04-.533.204-.1.546-.06 1.025.12 3.841 1.99 8.57 4.367 9.148 4.115 2.574-.871 5.704-1.487 9.406-1.889 3.735-.485 7.258-.66 10.563-.502 3.33.097 6.122.574 8.362 1.475 2.81 1.13 3.481 2.242 2.014 3.337-.617.46-1.429.737-2.434.827-1.003.083-1.9-.06-2.69-.424-.613-.282-1.117-.81-1.515-1.576-.422-.764-.95-1.282-1.585-1.561-1.195-.527-2.377-.823-3.543-.892-1.163-.077-2.47.064-3.92.42-1.445.345-4.066 1.243-7.847 2.659-1.307.483-2.317.851-3.034 1.107l8.237 4.953c.189.114.27.218.245.314-.026.097-.182.245-.468.445-.286.2-.64.329-1.062.386-.421.057-.726.026-.913-.091L68.124 41l-5.595 1.721c2.657 1.856 5.314 3.712 7.97 5.57.184.127.262.24.235.34-.027.098-.182.244-.465.438-.284.193-.633.31-1.047.349-.414.037-.712-.01-.893-.143l-7.972-5.916-6.174 1.686c-3.112.83-6.12 1.226-9.021 1.18-2.878-.102-5.526-.626-7.95-1.56-2.406-.975-4.258-2.162-5.568-3.527-1.07-1.114-1.764-2.161-2.088-3.135-.327-.963-.204-1.557.373-1.79 1.057-.428 2.25-.006 3.577 1.264.555.532.944 1.3 1.163 2.316.213 1.03.592 1.822 1.141 2.369.961.957 2.02 1.54 3.18 1.74 1.163.19 3.061-.016 5.701-.635l10.844-2.803.134-.08c.225-.123.172-.305-.158-.545l-6.387-4.634c-.298-.215-.282-.4.048-.556.203-.095.538-.038 1.006.173 3.733 2.263 8.204 4.888 8.775 4.652.07-.021.14-.04.21-.055l3.73-1.13v.001z" fill="#45B9E6" fill-rule="nonzero"/>
        <path d="M61.68 1.354L.862 36.739v69.664l60.818 35.005 60.818-35.005V36.739L61.68 1.354zm.068 140.054v-68.75 68.75zM.865 36.722L61.68 72.677.865 36.722zm121.633.017L61.68 72.677l60.818-35.938z" stroke="#D3D7EA" stroke-width=".9"/>
    </g>
</svg>
